<?xml version="1.0" standalone="no"?><!DOCTYPE svg PUBLIC "-//W3C//DTD SVG 1.1//EN" "http://www.w3.org/Graphics/SVG/1.1/DTD/svg11.dtd"><svg t="1513724303362" class="icon" style="" viewBox="0 0 1024 1024" version="1.1" xmlns="http://www.w3.org/2000/svg" p-id="6961" xmlns:xlink="http://www.w3.org/1999/xlink" width="32" height="32"><defs><style type="text/css"></style></defs><path d="M933.888 347.136c-12.8 0-23.552 10.752-23.552 23.552v420.352c0 67.072-52.736 119.808-119.808 119.808h-558.08c-67.072 0-119.808-52.736-119.808-119.808V229.888C112.64 165.376 165.376 112.64 229.888 112.64h539.648c12.8 0 23.552-10.752 23.552-23.552s-10.752-23.552-23.552-23.552H229.888c-90.624 0-164.352 73.728-164.352 164.352v561.152c0 92.672 73.728 166.912 166.912 166.912h558.592c92.672 0 166.912-73.728 166.912-166.912V370.688c-0.512-12.8-10.752-23.552-24.064-23.552z" fill="#000000" p-id="6962"></path><path d="M925.184 66.048L408.576 595.968c-8.704 8.704-8.704 23.04 0 31.744 8.704 8.704 22.528 8.704 31.232 0.512l0.512 0.512L953.856 101.888c1.536-1.024 2.56-2.048 3.584-3.072 9.216-9.216 9.216-23.552 0-32.768-8.704-8.704-23.04-8.704-32.256 0z" fill="#000000" p-id="6963"></path></svg>